<svg width="12" height="12" viewBox="0 0 12 12" fill="none" xmlns="http://www.w3.org/2000/svg">
<path d="M6.44053 10.8866L6.44053 6.67743H10.5595C10.8027 6.67743 11 6.47584 11 6.22725C11 5.97866 10.8027 5.77707 10.5595 5.77707H6.44053V1.56786C6.44053 1.31927 6.24326 1.11768 6 1.11768C5.75674 1.11768 5.55947 1.31927 5.55947 1.56786V5.77707L1.44053 5.77707C1.19727 5.77707 1 5.97866 1 6.22725C1 6.47584 1.19727 6.67743 1.44053 6.67743L5.55947 6.67743L5.55947 10.8866C5.55947 11.1352 5.75674 11.3368 6 11.3368C6.24326 11.3368 6.44053 11.1352 6.44053 10.8866" stroke="#1EA4CE"/>
</svg>
